<svg width="54" height="54" viewBox="0 0 54 54" fill="none" xmlns="http://www.w3.org/2000/svg">
<path d="M20.6438 24.3563C18.8813 22.5938 18 20.475 18 18C18 15.525 18.8813 13.4063 20.6438 11.6438C22.4063 9.88125 24.525 9 27 9C29.475 9 31.5938 9.88125 33.3563 11.6438C35.1188 13.4063 36 15.525 36 18C36 20.475 35.1188 22.5938 33.3563 24.3563C31.5938 26.1188 29.475 27 27 27C24.525 27 22.4063 26.1188 20.6438 24.3563ZM9 40.5V38.7C9 37.425 9.3285 36.2535 9.9855 35.1855C10.6425 34.1175 11.514 33.3015 12.6 32.7375C14.925 31.575 17.2875 30.7035 19.6875 30.123C22.0875 29.5425 24.525 29.2515 27 29.25C29.475 29.2485 31.9125 29.5395 34.3125 30.123C36.7125 30.7065 39.075 31.578 41.4 32.7375C42.4875 33.3 43.3598 34.116 44.0168 35.1855C44.6738 36.255 45.0015 37.4265 45 38.7V40.5C45 41.7375 44.5598 42.7973 43.6793 43.6793C42.7988 44.5613 41.739 45.0015 40.5 45H13.5C12.2625 45 11.2035 44.5598 10.323 43.6793C9.4425 42.7988 9.0015 41.739 9 40.5ZM13.5 40.5H40.5V38.7C40.5 38.2875 40.3973 37.9125 40.1918 37.575C39.9863 37.2375 39.714 36.975 39.375 36.7875C37.35 35.775 35.3063 35.016 33.2438 34.5105C31.1813 34.005 29.1 33.7515 27 33.75C24.9 33.7485 22.8188 34.002 20.7563 34.5105C18.6938 35.019 16.65 35.778 14.625 36.7875C14.2875 36.975 14.0153 37.2375 13.8083 37.575C13.6013 37.9125 13.4985 38.2875 13.5 38.7V40.5ZM30.1793 21.1793C31.0598 20.2973 31.5 19.2375 31.5 18C31.5 16.7625 31.0598 15.7035 30.1793 14.823C29.2988 13.9425 28.239 13.5015 27 13.5C25.761 13.4985 24.702 13.9395 23.823 14.823C22.944 15.7065 22.503 16.7655 22.5 18C22.497 19.2345 22.938 20.2943 23.823 21.1793C24.708 22.0643 25.767 22.5045 27 22.5C28.233 22.4955 29.2928 22.0553 30.1793 21.1793Z" fill="black"/>
</svg>
