<svg width="46" height="46" viewBox="0 0 46 46" fill="none" xmlns="http://www.w3.org/2000/svg">
<path d="M37.0247 31.4409C35.9003 30.3156 34.5865 29.3972 33.1435 28.7276C35.1784 27.079 36.4767 24.5633 36.4767 21.7423C36.4767 16.7649 32.3259 12.6815 27.3485 12.7579C22.4476 12.8342 18.4989 16.8278 18.4989 21.7423C18.4989 24.5633 19.8017 27.079 21.8321 28.7276C20.3889 29.3967 19.075 30.3152 17.9509 31.4409C15.4982 33.8981 14.1056 37.1415 14.0157 40.6005C14.0145 40.6484 14.0229 40.6961 14.0405 40.7407C14.058 40.7854 14.0843 40.8261 14.1178 40.8604C14.1513 40.8947 14.1913 40.922 14.2355 40.9406C14.2797 40.9592 14.3272 40.9688 14.3751 40.9688H16.8907C17.0839 40.9688 17.2456 40.8161 17.2501 40.6229C17.3355 38.0174 18.3911 35.5782 20.2464 33.7274C21.1958 32.773 22.325 32.0163 23.5688 31.5012C24.8125 30.9862 26.1461 30.7229 27.4923 30.7266C30.228 30.7266 32.8021 31.7913 34.7382 33.7274C36.589 35.5782 37.6446 38.0174 37.7345 40.6229C37.739 40.8161 37.9007 40.9688 38.0939 40.9688H40.6095C40.6574 40.9688 40.7049 40.9592 40.7491 40.9406C40.7933 40.922 40.8333 40.8947 40.8668 40.8604C40.9003 40.8261 40.9266 40.7854 40.9441 40.7407C40.9616 40.6961 40.9701 40.6484 40.9689 40.6005C40.879 37.1415 39.4864 33.8981 37.0247 31.4409ZM27.4923 27.4923C25.956 27.4923 24.5095 26.8948 23.4269 25.8077C22.8836 25.2686 22.4544 24.6257 22.165 23.9172C21.8755 23.2087 21.7318 22.4491 21.7423 21.6839C21.7558 20.2104 22.3443 18.7864 23.373 17.7307C24.4511 16.6257 25.8931 16.0102 27.4339 15.9923C28.9568 15.9788 30.4347 16.5717 31.5218 17.6364C32.6359 18.728 33.2468 20.188 33.2468 21.7423C33.2468 23.2786 32.6493 24.7206 31.5622 25.8077C31.0289 26.3436 30.3946 26.7684 29.696 27.0576C28.9974 27.3467 28.2484 27.4945 27.4923 27.4923ZM16.2394 22.9282C16.1989 22.5374 16.1765 22.1421 16.1765 21.7423C16.1765 21.028 16.2439 20.3317 16.3696 19.6534C16.4011 19.4917 16.3157 19.3255 16.1675 19.2581C15.5566 18.9841 14.995 18.6067 14.5099 18.1305C13.9382 17.5762 13.4883 16.9088 13.189 16.171C12.8897 15.4331 12.7475 14.6409 12.7714 13.845C12.8118 12.403 13.3913 11.0329 14.4021 9.99968C15.5116 8.86315 17.003 8.24323 18.5888 8.2612C20.0218 8.27468 21.4054 8.82722 22.4521 9.80651C22.8069 10.1389 23.1124 10.5073 23.3685 10.9026C23.4583 11.0419 23.6335 11.1003 23.7862 11.0464C24.5769 10.7723 25.4124 10.5792 26.2704 10.4893C26.522 10.4624 26.6657 10.1928 26.5534 9.96823C25.0935 7.07975 22.1107 5.08522 18.6607 5.03132C13.6788 4.95495 9.52804 9.03835 9.52804 14.0112C9.52804 16.8323 10.8263 19.3479 12.8612 20.9966C11.4327 21.6569 10.1165 22.5688 8.9755 23.7098C6.51378 26.1671 5.12121 29.4104 5.03136 32.8739C5.03016 32.9218 5.03857 32.9695 5.0561 33.0142C5.07362 33.0588 5.0999 33.0995 5.13339 33.1338C5.16688 33.1682 5.20691 33.1954 5.2511 33.2141C5.2953 33.2327 5.34278 33.2423 5.39074 33.2423H7.91085C8.10402 33.2423 8.26574 33.0895 8.27023 32.8964C8.35558 30.2909 9.41125 27.8516 11.2665 26.0008C12.5872 24.6801 14.2044 23.7637 15.9698 23.319C16.145 23.2741 16.2618 23.1079 16.2394 22.9282Z" fill="#F2F2F2"/>
</svg>
